<svg width="186" height="40" viewBox="0 0 186 40" fill="none" xmlns="http://www.w3.org/2000/svg">
<g clip-path="url(#clip0_0_481)">
<path d="M65.0075 16.7466H62.1545C61.9227 15.5995 61.3543 14.719 60.449 14.1052C59.5436 13.4913 58.4936 13.1843 57.2986 13.1843C56.2256 13.1843 55.2624 13.4409 54.409 13.9539C53.5553 14.4669 52.8833 15.2177 52.3926 16.2062C51.9018 17.1947 51.6564 18.4067 51.6564 19.8419C51.6564 21.283 51.9033 22.4992 52.3973 23.4907C52.891 24.4821 53.563 25.2314 54.4134 25.7387C55.2638 26.2459 56.2226 26.4995 57.2895 26.4995C58.4724 26.4995 59.5176 26.1969 60.4263 25.5917C61.3345 24.9865 61.9106 24.119 62.1545 22.9892L65.0075 22.9978C64.8064 24.1622 64.3552 25.1911 63.6542 26.0845C62.9533 26.978 62.0571 27.6769 60.9657 28.1813C59.8743 28.6856 58.6431 28.9378 57.2712 28.9378C55.6495 28.9378 54.2047 28.5732 52.9368 27.8441C51.6685 27.1149 50.6705 26.0701 49.9417 24.7098C49.2133 23.3494 48.8489 21.7269 48.8489 19.8419C48.8489 17.9513 49.2147 16.3273 49.9465 14.9698C50.6778 13.6123 51.6777 12.569 52.9459 11.8398C54.2138 11.1107 55.6557 10.7461 57.2712 10.7461C58.5944 10.7461 59.7996 10.9824 60.8881 11.4551C61.9762 11.9278 62.8815 12.6122 63.6041 13.5086C64.3263 14.4049 64.7943 15.4842 65.0075 16.7466ZM72.2593 28.9897C71.3693 28.9897 70.5662 28.8341 69.8498 28.5228C69.1335 28.2115 68.5651 27.7547 68.1443 27.1523C67.7235 26.55 67.5132 25.8136 67.5132 24.9432C67.5132 24.1881 67.6671 23.5685 67.9751 23.0843C68.2831 22.6001 68.6944 22.2168 69.2096 21.9343C69.7246 21.6519 70.3025 21.4401 70.9427 21.2989C71.5825 21.1576 72.2351 21.0495 72.8994 20.9746C73.7407 20.8824 74.4219 20.806 74.9434 20.7455C75.4645 20.685 75.8454 20.5855 76.0864 20.4472C76.327 20.3089 76.4475 20.0841 76.4475 19.7728V19.7123C76.4475 18.9571 76.2234 18.3721 75.7755 17.9571C75.3272 17.5421 74.6614 17.3345 73.7773 17.3345C72.8566 17.3345 72.1329 17.5247 71.6055 17.9052C71.0782 18.2856 70.7138 18.7122 70.5127 19.1848L67.9432 18.6315C68.4003 17.421 69.1639 16.5535 70.2336 16.029C71.3038 15.5044 72.4728 15.2422 73.7407 15.2422C74.3018 15.2422 74.8962 15.3041 75.5239 15.4281C76.152 15.552 76.7449 15.7797 77.3027 16.1111C77.8605 16.4425 78.3146 16.9109 78.6651 17.5161C79.0156 18.1214 79.191 18.9082 79.191 19.8765V28.6957H76.5208V26.88H76.4109C76.1487 27.3757 75.6825 27.8513 75.0119 28.3066C74.3413 28.762 73.4239 28.9897 72.2593 28.9897ZM72.8537 26.9146C73.6158 26.9146 74.2651 26.7734 74.8017 26.4909C75.3382 26.2085 75.748 25.8381 76.0315 25.3799C76.3149 24.9216 76.4567 24.4302 76.4567 23.9057V22.1937C76.3289 22.3148 76.0483 22.4214 75.6154 22.5137C75.1825 22.6059 74.7255 22.6837 74.2439 22.7471C73.7619 22.8105 73.3719 22.8624 73.073 22.9027C72.2805 23.0007 71.6026 23.1981 71.0386 23.495C70.4746 23.7918 70.1926 24.2861 70.1926 24.9778C70.1926 25.6177 70.4428 26.1004 70.9427 26.4261C71.4426 26.7517 72.0795 26.9146 72.8537 26.9146ZM93.3562 18.6574L90.8779 19.0724C90.7193 18.6286 90.4252 18.2208 89.9952 17.849C89.5657 17.4772 88.924 17.2913 88.0703 17.2913C87.2961 17.2913 86.6486 17.4541 86.1271 17.7798C85.6059 18.1055 85.3485 18.5248 85.3543 19.0378C85.3485 19.4875 85.5206 19.8463 85.8711 20.1143C86.2216 20.3823 86.7841 20.6028 87.5583 20.7757L89.7898 21.2599C92.3501 21.8191 93.6305 23.018 93.6305 24.8568C93.6305 25.658 93.388 26.367 92.9035 26.9838C92.4186 27.6005 91.7451 28.0847 90.8823 28.4363C90.0198 28.7879 89.0214 28.9637 87.8876 28.9637C86.3084 28.9637 85.0251 28.6453 84.0377 28.0083C83.05 27.3714 82.4402 26.465 82.2087 25.2891L84.8515 24.9086C85.1807 26.2229 86.1868 26.88 87.8693 26.88C88.7654 26.88 89.4818 26.7028 90.0183 26.3482C90.5548 25.9938 90.8229 25.56 90.8229 25.047C90.8229 24.1997 90.1615 23.6377 88.8387 23.361L86.4611 22.8681C85.1441 22.5914 84.1747 22.1418 83.5528 21.5193C82.931 20.8968 82.6204 20.1158 82.6204 19.1762C82.6204 18.3923 82.8518 17.7049 83.3151 17.1141C83.7784 16.5232 84.4186 16.0635 85.2357 15.735C86.0524 15.4064 86.9885 15.2422 88.0429 15.2422C89.5609 15.2422 90.7559 15.5534 91.6275 16.1759C92.4995 16.7985 93.0756 17.6256 93.3562 18.6574ZM102.683 28.9637C101.306 28.9637 100.117 28.6813 99.117 28.1164C98.1172 27.5515 97.3478 26.7575 96.8083 25.7344C96.2685 24.7112 95.9989 23.5137 95.9989 22.1418C95.9989 20.7815 96.2685 19.5826 96.8083 18.545C97.3478 17.5075 98.1037 16.6976 99.076 16.1154C100.048 15.5332 101.187 15.2422 102.492 15.2422C103.552 15.2422 104.557 15.4655 105.505 15.9122C106.453 16.359 107.224 17.0708 107.818 18.0478C108.413 19.0249 108.71 20.3146 108.71 21.917V22.8335H98.7241C98.7607 24.1132 99.1416 25.0989 99.8671 25.7906C100.593 26.4823 101.54 26.8281 102.711 26.8281C103.491 26.8281 104.165 26.6696 104.732 26.3526C105.299 26.0356 105.704 25.5629 105.948 24.9346L108.536 25.3755C108.225 26.4534 107.555 27.321 106.524 27.9781C105.494 28.6352 104.214 28.9637 102.683 28.9637ZM98.7332 20.8968H106.03C106.025 19.8823 105.701 19.0422 105.061 18.3764C104.421 17.7106 103.57 17.3778 102.51 17.3778C101.772 17.3778 101.127 17.5406 100.576 17.8663C100.024 18.1919 99.588 18.6214 99.2679 19.1546C98.9478 19.6878 98.7698 20.2685 98.7332 20.8968ZM124.649 16.5823C124.295 15.5332 123.706 14.7046 122.879 14.0965C122.054 13.4884 121.019 13.1843 119.775 13.1843C118.72 13.1843 117.769 13.4409 116.922 13.9539C116.074 14.4669 115.405 15.2177 114.915 16.2062C114.424 17.1947 114.178 18.4038 114.178 19.8333C114.178 21.2686 114.425 22.4819 114.919 23.4734C115.413 24.4648 116.09 25.217 116.949 25.7301C117.809 26.2431 118.787 26.4995 119.885 26.4995C121.384 26.4995 122.594 26.0802 123.515 25.2415C124.436 24.4029 124.911 23.2688 124.942 21.8392H120.314V19.6345H127.676V21.649C127.676 23.1362 127.342 24.4259 126.675 25.5182C126.007 26.6105 125.088 27.4535 123.917 28.0472C122.747 28.641 121.403 28.9378 119.885 28.9378C118.196 28.9378 116.712 28.5703 115.431 27.8354C114.151 27.1005 113.154 26.0529 112.441 24.6925C111.728 23.3321 111.371 21.7182 111.371 19.8506C111.371 17.9657 111.734 16.3431 112.459 14.9827C113.185 13.6224 114.178 12.5762 115.44 11.8442C116.702 11.1121 118.141 10.7461 119.756 10.7461C121.104 10.7461 122.326 10.9925 123.424 11.4854C124.521 11.9782 125.431 12.6627 126.153 13.5388C126.876 14.415 127.34 15.4295 127.548 16.5823H124.649ZM139.939 23.1881V15.4151H142.682V28.6957H139.994V26.3958H139.847C139.524 27.1048 139.008 27.6942 138.297 28.1639C137.587 28.6337 136.705 28.8686 135.65 28.8686C134.303 28.8686 133.198 28.4464 132.335 27.6019C131.472 26.7575 131.041 25.511 131.041 23.8625V15.4151H133.775V23.5512C133.775 24.4562 134.041 25.1767 134.571 25.7128C135.101 26.2488 135.79 26.5169 136.638 26.5169C137.15 26.5169 137.66 26.3958 138.169 26.1537C138.678 25.9116 139.102 25.5442 139.44 25.0513C139.779 24.5585 139.945 23.9374 139.939 23.1881ZM150.437 28.9897C149.547 28.9897 148.744 28.8341 148.027 28.5228C147.311 28.2115 146.742 27.7547 146.322 27.1523C145.901 26.55 145.691 25.8136 145.691 24.9432C145.691 24.1881 145.845 23.5685 146.153 23.0843C146.46 22.6001 146.872 22.2168 147.387 21.9343C147.902 21.6519 148.48 21.4401 149.12 21.2989C149.76 21.1576 150.412 21.0495 151.077 20.9746C151.918 20.8824 152.6 20.806 153.121 20.7455C153.642 20.685 154.023 20.5855 154.264 20.4472C154.505 20.3089 154.625 20.0841 154.625 19.7728V19.7123C154.625 18.9571 154.401 18.3721 153.953 17.9571C153.505 17.5421 152.839 17.3345 151.955 17.3345C151.034 17.3345 150.31 17.5247 149.783 17.9052C149.256 18.2856 148.891 18.7122 148.69 19.1848L146.121 18.6315C146.578 17.421 147.342 16.5535 148.411 16.029C149.481 15.5044 150.65 15.2422 151.918 15.2422C152.479 15.2422 153.074 15.3041 153.702 15.4281C154.329 15.552 154.922 15.7797 155.48 16.1111C156.038 16.4425 156.492 16.9109 156.843 17.5161C157.193 18.1214 157.369 18.9082 157.369 19.8765V28.6957H154.698V26.88H154.589C154.326 27.3757 153.86 27.8513 153.19 28.3066C152.519 28.762 151.601 28.9897 150.437 28.9897ZM151.031 26.9146C151.794 26.9146 152.442 26.7734 152.979 26.4909C153.516 26.2085 153.926 25.8381 154.209 25.3799C154.493 24.9216 154.634 24.4302 154.634 23.9057V22.1937C154.506 22.3148 154.226 22.4214 153.793 22.5137C153.36 22.6059 152.903 22.6837 152.421 22.7471C151.94 22.8105 151.55 22.8624 151.251 22.9027C150.458 23.0007 149.78 23.1981 149.216 23.495C148.652 23.7918 148.37 24.2861 148.37 24.9778C148.37 25.6177 148.62 26.1004 149.12 26.4261C149.62 26.7517 150.257 26.9146 151.031 26.9146ZM161.008 28.6957V15.4151H163.651V17.5247H163.797C164.053 16.81 164.504 16.2466 165.151 15.8344C165.797 15.4223 166.534 15.2162 167.364 15.2162C167.748 15.2162 168.092 15.2594 168.397 15.3459C168.702 15.4324 168.97 15.5505 169.202 15.7004L168.324 17.8619C168.159 17.7813 167.973 17.7179 167.766 17.6717C167.559 17.6256 167.321 17.6026 167.053 17.6026C166.108 17.6026 165.32 17.8836 164.689 18.4456C164.058 19.0076 163.742 19.7209 163.742 20.5855V28.6957H161.008ZM176.527 28.9551C175.393 28.9551 174.384 28.6813 173.5 28.1337C172.616 27.5861 171.921 26.7979 171.415 25.769C170.909 24.7401 170.656 23.5109 170.656 22.0813C170.656 20.6461 170.91 19.4183 171.419 18.398C171.928 17.3778 172.628 16.5967 173.518 16.0549C174.408 15.5131 175.417 15.2422 176.545 15.2422C177.417 15.2422 178.119 15.379 178.653 15.6529C179.186 15.9266 179.601 16.2451 179.896 16.6082C180.192 16.9714 180.422 17.2913 180.587 17.568H180.751V10.9882H183.486V28.6957H180.815V26.6293H180.587C180.422 26.9117 180.186 27.2345 179.878 27.5976C179.57 27.9608 179.148 28.2778 178.612 28.5487C178.075 28.8197 177.38 28.9551 176.527 28.9551ZM177.13 26.7503C178.313 26.7503 179.22 26.3166 179.851 25.449C180.482 24.5815 180.797 23.4503 180.797 22.0554C180.797 20.6662 180.485 19.5494 179.86 18.705C179.235 17.8605 178.325 17.4383 177.13 17.4383C176.307 17.4383 175.621 17.6401 175.072 18.0435C174.524 18.447 174.111 18.9961 173.833 19.6906C173.556 20.3852 173.417 21.1735 173.417 22.0554C173.417 22.9431 173.558 23.7414 173.838 24.4504C174.118 25.1594 174.534 25.7199 175.086 26.1321C175.638 26.5442 176.319 26.7503 177.13 26.7503Z" fill="white"/>
<path d="M20.5837 40C31.7083 40 40.7265 31.0457 40.7265 20C40.7265 8.9543 31.7083 0 20.5837 0C9.45906 0 0.440796 8.9543 0.440796 20C0.440796 31.0457 9.45906 40 20.5837 40Z" fill="#00F3FF"/>
<path d="M20.8898 16.8858C24.4258 15.4975 28.3863 17.1512 29.7928 20.6703C31.2387 24.2899 29.4431 28.4977 25.7342 29.9757C24.5671 30.4264 23.2896 30.5849 22.0331 30.4348C23.9271 31.0412 26.0034 30.9629 27.8362 30.216C32.4174 28.3901 34.5861 23.2065 32.7513 18.7798C30.9793 14.5002 26.0996 12.5093 21.7895 14.2061C18.0335 15.6841 15.6525 19.7089 16.4737 23.2962C16.5287 23.5294 16.4462 23.2352 16.4737 23.3357C16.2968 20.3367 17.9509 18.0373 20.8898 16.8858Z" fill="black"/>
<path d="M19.786 24.3555C16.2958 25.644 12.4178 23.8022 11.1923 20.2436C9.96684 16.685 11.8089 12.8552 15.2952 11.6452C16.3926 11.2811 17.5734 11.184 18.7234 11.3632C16.9948 10.7578 15.0848 10.7578 13.3562 11.3632C9.03221 12.8587 6.71315 17.6238 8.23335 22.014C9.75355 26.4043 14.5662 28.7065 18.8979 27.0896C22.6131 25.7047 24.715 21.9105 24.2147 18.127C24.1837 17.895 24.1488 17.6809 24.1294 17.5845C24.3311 20.4828 22.6364 23.299 19.786 24.3555Z" fill="black"/>
<path d="M17.2814 23.2727C17.1255 23.325 16.9591 23.2968 16.8202 23.1945C16.6814 23.0923 16.582 22.9247 16.5447 22.73L16.3311 21.6811C16.2476 21.2657 16.4421 20.8424 16.7731 20.7188L21.602 19.0132C21.7573 18.9633 21.9223 18.9921 22.0605 19.093C22.1987 19.194 22.2988 19.3589 22.3387 19.5513L22.556 20.5866C22.6465 20.9989 22.4555 21.4255 22.125 21.5488L17.2814 23.2727Z" fill="black"/>
</g>
<defs>
<clipPath id="clip0_0_481">
<rect width="186" height="40" fill="white"/>
</clipPath>
</defs>
</svg>
